<svg xmlns="http://www.w3.org/2000/svg" width="355.059" height="274.636" viewBox="0 0 355.059 274.636">
  <g id="Group_182" data-name="Group 182" transform="translate(-29.147 -53.551)">
    <path id="Path_262" data-name="Path 262" d="M609.515,295.2H509.187a4.726,4.726,0,1,1,0-9.451H609.515a4.726,4.726,0,0,1,0,9.451Z" transform="translate(-360.851 -216.023)" fill="#e4e4e4"/>
    <path id="Path_263" data-name="Path 263" d="M605.318,267.046H537.342a4.726,4.726,0,1,1,0-9.451h67.976a4.726,4.726,0,0,1,0,9.451Z" transform="translate(-372.83 -204.043)" fill="#e4e4e4"/>
    <circle id="Ellipse_37" data-name="Ellipse 37" cx="41.941" cy="41.941" r="41.941" transform="translate(29.147 128.826)" fill="#f0f0f0"/>
    <circle id="Ellipse_38" data-name="Ellipse 38" cx="41.941" cy="41.941" r="41.941" transform="translate(300.325 128.826)" fill="#f0f0f0"/>
    <circle id="Ellipse_39" data-name="Ellipse 39" cx="41.941" cy="41.941" r="41.941" transform="translate(156.693 128.826)" fill="#f0f0f0"/>
    <path id="Path_264" data-name="Path 264" d="M853.564,484.858a64.634,64.634,0,0,0-10.31-4.339L842.8,475.5l-18.388-1.981-2.337,6.411-6.6,2.476a3.223,3.223,0,0,0-.67.349H814.8a6.517,6.517,0,0,0-3.027,1.047,6.7,6.7,0,0,0-1.618,1.451c.893.677,1.82,1.3,2.776,1.9l.042.021c.272.167.551.335.83.5.5.3,1.019.586,1.535.858l.328.167c.753.391,1.521.76,2.309,1.1.16.07.335.14.5.209.014.007.021.007.034.014.37.154.74.3,1.116.44a36.68,36.68,0,0,0,3.781,1.214,38.888,38.888,0,0,0,10.024,1.311c1.235,0,2.456-.056,3.663-.174a38.72,38.72,0,0,0,8.12-1.639c.007,0,.014-.007.021-.007a38.109,38.109,0,0,0,4.876-1.932c.006-.007.021-.007.028-.014.356-.167.7-.349,1.046-.523l.167-.084c.279-.146.558-.293.838-.446.7-.384,1.381-.788,2.057-1.221.188-.112.37-.23.558-.356.265-.174.53-.356.788-.544C854.938,485.633,854.261,485.235,853.564,484.858Z" transform="translate(-490.914 -295.914)" fill="#5347dc"/>
    <circle id="Ellipse_40" data-name="Ellipse 40" cx="13.243" cy="13.243" r="13.243" transform="translate(328.726 147.951)" fill="#a0616a"/>
    <path id="Path_265" data-name="Path 265" d="M829.895,424.52c1.371,1.622,3.691,2.08,5.831,2.268a54.919,54.919,0,0,0,14.914-1.218c.3,2.938-.524,6.107,1.207,8.524a39.565,39.565,0,0,0,1.406-8.97,8.586,8.586,0,0,0-.5-3.842,3.534,3.534,0,0,0-3.01-2.219,7.545,7.545,0,0,1,3.365-1.439l-4.205-2.113,1.08-1.109-7.613-.466,2.2-1.4a47.821,47.821,0,0,0-10.017-.316,8.6,8.6,0,0,0-4.43,1.232c-1.257.9-1.983,2.685-1.2,4.005a5.815,5.815,0,0,0-4.432,3.516,9.388,9.388,0,0,0-.336,4.513,31.977,31.977,0,0,0,1.677,7.1Z" transform="translate(-496.816 -269.777)" fill="#2f2e41"/>
    <circle id="Ellipse_188" data-name="Ellipse 188" cx="5.6" cy="5.6" r="5.6" transform="translate(195.361 136.86)" fill="#2f2e41"/>
    <path id="Path_969" data-name="Path 969" d="M593.787,410.454a5.6,5.6,0,0,1,2.036-9.4,5.6,5.6,0,1,0,2.6,10.845,5.586,5.586,0,0,1-4.632-1.446Z" transform="translate(-397.685 -265.081)" fill="#2f2e41"/>
    <circle id="Ellipse_189" data-name="Ellipse 189" cx="16.449" cy="16.449" r="16.449" transform="translate(184.624 145.44)" fill="#2f2e41"/>
    <path id="Path_970" data-name="Path 970" d="M575.279,425.731a16.447,16.447,0,0,1,22.8-1.725c-.134-.128-.268-.257-.407-.381a16.449,16.449,0,1,0-21.952,24.5l.094.083c.139.124.283.241.426.36a16.447,16.447,0,0,1-.957-22.841Z" transform="translate(-388.839 -272.899)" fill="#2f2e41"/>
    <circle id="Ellipse_190" data-name="Ellipse 190" cx="10.594" cy="10.594" r="10.594" transform="translate(190.339 157.011)" fill="#a0616a"/>
    <path id="Path_266" data-name="Path 266" d="M601.55,492.129v3.555c-.651.416-1.308.8-1.979,1.174-.268.147-.536.288-.8.429l-.161.081c-.335.168-.664.342-1.006.5-.006.007-.02.007-.027.014a36.623,36.623,0,0,1-4.688,1.858c-.007,0-.013.007-.02.007a37.218,37.218,0,0,1-7.807,1.576c-1.16.114-2.334.168-3.521.168a37.375,37.375,0,0,1-9.637-1.261,36.3,36.3,0,0,1-4.708-1.589c-.013-.007-.02-.007-.034-.013-.154-.067-.322-.134-.476-.2-.758-.329-1.5-.684-2.22-1.06l-.315-.161c-.771-.409-1.529-.838-2.274-1.3l-.04-.02a36.711,36.711,0,0,1-3.313-2.327c-.543-.416-1.066-.852-1.576-1.308-.268-.228-.536-.469-.791-.7a36.257,36.257,0,0,1-2.784-2.87,13.555,13.555,0,0,1,.51-2.059l.006-.007a3.032,3.032,0,0,1,.141-.335,2.641,2.641,0,0,1,.127-.282c1.2-2.247,3.374-2.8,6.07-2.924,1.522-.067,3.206.007,4.983-.013.939-.007,1.911-.04,2.884-.128,6.137-.557,5.024-4.178,5.3-6.13.275-1.891,1.979-.255,2.093-.147l.006.007a21.645,21.645,0,0,0,11.133,1.952c.657-.08,1.314-.127,1.972-.147,1.73-.02,1.355.476.758.885a7.518,7.518,0,0,1-.905.51s-.275,1.677-.557,4.185c-.268,2.4,8.189,3.233,9.846,3.756h.006A6.048,6.048,0,0,1,601.55,492.129Z" transform="translate(-381.66 -296.922)" fill="#5347dc"/>
    <ellipse id="Ellipse_191" data-name="Ellipse 191" cx="0.836" cy="1.533" rx="0.836" ry="1.533" transform="translate(189.363 163.842)" fill="#a0616a"/>
    <ellipse id="Ellipse_192" data-name="Ellipse 192" cx="0.836" cy="1.533" rx="0.836" ry="1.533" transform="translate(210.831 163.842)" fill="#a0616a"/>
    <path id="Path_267" data-name="Path 267" d="M350.216,448.277l2.013,6.972,25.719-.454-.225-12.774c-.179-10.111-7.324-18.832-17.435-18.653s-16.54,8.726-16.362,18.837l1.469,13.164,4.193-.074Z" transform="translate(-292.547 -274.574)" fill="#2f2e41"/>
    <circle id="Ellipse_41" data-name="Ellipse 41" cx="11.54" cy="11.54" r="11.54" transform="translate(57.351 155.499)" fill="#ffb6b6"/>
    <path id="Path_268" data-name="Path 268" d="M377.478,437.76a4.475,4.475,0,0,0-.795-2.469c-.053-.075-.107-.144-.16-.213a4.5,4.5,0,0,0-3.606-1.723l-8.294.149-8.289.144a4.491,4.491,0,0,0-4.4,4.56l1.974,3.974,1.136,2.283.187-.107c7.174-4.032,10.107-4.086,19.6-.336l.192.075.752-1.926,1.707-4.368Z" transform="translate(-295.955 -278.824)" fill="#2f2e41"/>
    <path id="Path_269" data-name="Path 269" d="M381.9,485.2c-2.475-2.469-10.849-1.488-10.849-1.488l-22.1,1.392c-4.9.363-9.319,4.288-10.919,5.878.256.251.517.5.784.731a30.94,30.94,0,0,0,36.387,3.456c2.368-1.413,5.4-3.108,7.3-5.087.752-.779,1.354-.763,2.021-1.617A6.658,6.658,0,0,0,381.9,485.2Z" transform="translate(-290.039 -300.169)" fill="#5347dc"/>
    <circle id="Ellipse_42" data-name="Ellipse 42" cx="41.941" cy="41.941" r="41.941" transform="translate(29.147 244.306)" fill="#f0f0f0"/>
    <circle id="Ellipse_43" data-name="Ellipse 43" cx="41.941" cy="41.941" r="41.941" transform="translate(300.325 244.306)" fill="#f0f0f0"/>
    <circle id="Ellipse_44" data-name="Ellipse 44" cx="41.941" cy="41.941" r="41.941" transform="translate(156.693 244.306)" fill="#f0f0f0"/>
    <circle id="Ellipse_45" data-name="Ellipse 45" cx="11.595" cy="11.595" r="11.595" transform="translate(58.806 269.073)" fill="#ffb8b8"/>
    <path id="Path_270" data-name="Path 270" d="M355.738,644.371s.985-1.73.756-7.51,8.572-2.511,15.926-3.062,5.8,9.649,5.8,9.649.531-.606,1.666-5.529-1.443-9.829-1.443-9.829c-.76-5.173-4.853-3.515-4.853-3.515a2.147,2.147,0,0,1,1.593,2.409c-1.669-2.926-5.762-1.268-5.762-1.268-5.46-3.426-10.993,1.086-10.993,1.086-6.6,1.5-2.728,6.742-2.728,6.742C349.065,636.895,355.738,644.371,355.738,644.371Z" transform="translate(-296.307 -360.075)" fill="#2f2e41"/>
    <path id="Path_271" data-name="Path 271" d="M378.564,691.874a64.628,64.628,0,0,0-10.311-4.339l-.454-5.016-18.388-1.981-2.337,6.411-6.6,2.477a3.211,3.211,0,0,0-.67.349H339.8a6.515,6.515,0,0,0-3.027,1.046,6.7,6.7,0,0,0-1.618,1.451c.893.677,1.82,1.3,2.776,1.9l.042.021c.272.168.551.335.83.5.5.3,1.019.586,1.535.858l.328.167c.753.39,1.521.76,2.309,1.1.16.07.335.14.5.209.014.007.021.007.034.014.37.153.74.3,1.116.439A36.627,36.627,0,0,0,348.4,698.7a38.885,38.885,0,0,0,10.024,1.312c1.235,0,2.456-.056,3.663-.175a38.711,38.711,0,0,0,8.12-1.639c.007,0,.014-.007.021-.007a38.085,38.085,0,0,0,4.876-1.932c.007-.007.021-.007.028-.014.356-.167.7-.349,1.046-.523l.168-.084c.279-.146.558-.293.838-.447.7-.384,1.381-.788,2.057-1.221.188-.112.37-.23.558-.356.265-.174.53-.356.788-.544C379.937,692.649,379.261,692.251,378.564,691.874Z" transform="translate(-288.815 -383.994)" fill="#5347dc"/>
    <path id="Path_272" data-name="Path 272" d="M597.832,693.171l-6.98-.635-4.177-3.051a.024.024,0,0,0-.005-.016l-.011.005-.167-.124-.022.194-7.05,2.711-7.244-1.671-2.506,2.711L558.509,697a5.67,5.67,0,0,0-1.4,1.32v.007c.469.367.95.728,1.438,1.071a37.078,37.078,0,0,0,3.444,2.21,38.8,38.8,0,0,0,9.195,3.778q.437.121.873.226c.507.124,1.019.243,1.531.34q1.552.323,3.142.507a38.527,38.527,0,0,0,4.694.28q1.609,0,3.185-.124a39.287,39.287,0,0,0,5.487-.836c.065-.016.129-.027.194-.048a38.8,38.8,0,0,0,8.02-2.792c.394-.189.787-.383,1.175-.582q1.432-.735,2.781-1.584c.679-.42,1.342-.868,1.989-1.331.4-.286.792-.577,1.18-.879l-.042-.089A9.285,9.285,0,0,0,597.832,693.171Z" transform="translate(-383.253 -387.743)" fill="#5347dc"/>
    <path id="Path_273" data-name="Path 273" d="M594.242,631.91a12.84,12.84,0,0,0-2.733-2.064c-6.171-3.406-12.914-3.466-18.5-.167a17.405,17.405,0,0,0-3.767,2.991,17.626,17.626,0,0,0-4.9,12.148v13.431h35.13V643.443A17.364,17.364,0,0,0,594.242,631.91Z" transform="translate(-386.33 -361.32)" fill="#2f2e41"/>
    <circle id="Ellipse_46" data-name="Ellipse 46" cx="12.688" cy="12.688" r="12.688" transform="translate(182.198 271.187)" fill="#ffb8b8"/>
    <path id="Path_274" data-name="Path 274" d="M596.874,635.495a1.569,1.569,0,0,0-.889-1.267,26.492,26.492,0,0,0-23.92.291h-.145l-.049.2c-1.563,12.041-1.342,12.3-1.245,12.412a1.568,1.568,0,0,0,.555.4,1.522,1.522,0,0,0,.62.129h18.1l.043-.2a29.564,29.564,0,0,1,.808-3.191,35.426,35.426,0,0,1,1.989,3.266l.075.129h3.52a1.259,1.259,0,0,0,.2-.016,1.51,1.51,0,0,0,.943-.49C597.575,647.056,597.8,646.808,596.874,635.495Z" transform="translate(-388.973 -363.137)" fill="#2f2e41"/>
    <path id="Path_275" data-name="Path 275" d="M842.7,687.921l-.457-5.074-18.626-2.007-2.359,6.492-6.687,2.506a3.265,3.265,0,0,0-.688.352,6.756,6.756,0,0,0-3.646,1.481c.152.126.3.247.457.368.031.032.068.058.1.084.426.331.862.656,1.3.966.115.084.231.168.352.247a34.944,34.944,0,0,0,3,1.907q1.481.843,3.041,1.555a37.607,37.607,0,0,0,5.92,2.127q.425.118.851.221c.494.121.993.236,1.492.331q1.513.315,3.062.494a37.582,37.582,0,0,0,4.575.273q1.568,0,3.1-.121a38.271,38.271,0,0,0,5.347-.814c.063-.016.126-.026.189-.047a37.819,37.819,0,0,0,7.816-2.721c.384-.184.767-.373,1.145-.567q1.4-.717,2.71-1.544c.315-.194.625-.394.935-.6C850.883,690.621,843.965,688.326,842.7,687.921Z" transform="translate(-490.952 -384.122)" fill="#5347dc"/>
    <circle id="Ellipse_109" data-name="Ellipse 109" cx="13.413" cy="13.413" r="13.413" transform="translate(327.842 266.679)" fill="#a0616a"/>
    <path id="Path_696" data-name="Path 696" d="M828.4,631.285c1.388,1.643,3.738,2.107,5.906,2.3a55.618,55.618,0,0,0,15.105-1.233c.309,2.976-.53,6.185,1.223,8.633a40.078,40.078,0,0,0,1.424-9.085,8.7,8.7,0,0,0-.5-3.891,3.578,3.578,0,0,0-3.049-2.248,1.118,1.118,0,0,0,.245-1.17,3.8,3.8,0,0,0-2.884-2.858l-4.828-1.164s-4.531-1.987-7.916-1.738a8.706,8.706,0,0,0-4.487,1.247c-1.273.911-2.009,2.72-1.218,4.056a5.889,5.889,0,0,0-4.488,3.561,9.5,9.5,0,0,0-.341,4.57,32.384,32.384,0,0,0,1.7,7.186Z" transform="translate(-496.146 -357.728)" fill="#2f2e41"/>
    <path id="Path_276" data-name="Path 276" d="M608.145,438.044a5.157,5.157,0,0,0-2.523-3.028,14.383,14.383,0,0,0-3.805-1.338,25.044,25.044,0,0,0-7.127-.975,9.419,9.419,0,0,0-6.494,2.715,5.879,5.879,0,0,0-1.049,6.666l-.132.541a9.93,9.93,0,0,0,9.705-4.781,9.066,9.066,0,0,0,8.581,4.169,4.018,4.018,0,0,0,1.532-.441A3.188,3.188,0,0,0,608.145,438.044Z" transform="translate(-395.766 -278.546)" fill="#2f2e41"/>
  </g>
</svg>
