<svg xmlns="http://www.w3.org/2000/svg" width="201.614" height="136.963" viewBox="0 0 201.614 136.963">
  <g id="Group_186" data-name="Group 186" transform="translate(-86.439)">
    <rect id="Rectangle_84" data-name="Rectangle 84" width="8.17" height="7.209" transform="translate(243.118 129.754)" fill="#f0f0f0"/>
    <path id="Path_277" data-name="Path 277" d="M679.851,225.552a60.544,60.544,0,0,1-31.5,53.142c-.541.3-1.088.584-1.639.863a59.169,59.169,0,0,1-6.288,2.758q-1.283.483-2.593.9c-.084.029-.171.058-.255.082a60.434,60.434,0,0,1-51.385-7.036q-1.51-.988-2.958-2.062c-.545-.406-1.084-.819-1.615-1.245q-2.253-1.788-4.325-3.789a60.552,60.552,0,1,1,102.557-43.612Z" transform="translate(-391.799 -165)" fill="#f2f2f2"/>
    <path id="Path_278" data-name="Path 278" d="M748.984,423.894l-1.365,5.161L752.8,453.38a60.8,60.8,0,0,1-42.386-2.179l4.046-16.967.135-9.2.44-30.346.111-.058a.086.086,0,0,1,.022-.01l10.308-5.293,17.786-.445,13.271,6.464-.1.377Z" transform="translate(-507.024 -335.085)" fill="#5347dc"/>
    <path id="Path_279" data-name="Path 279" d="M895.729,650.464a4.344,4.344,0,0,1,1.16-6.559L894,628.741l7.4,3.086,1.607,13.926a4.367,4.367,0,0,1-7.283,4.71Z" transform="translate(-646.497 -517.311)" fill="#ffb6b6"/>
    <path id="Path_280" data-name="Path 280" d="M875.689,415.789l1.9-.618s6.026,3.868,5.453,13.219c0,0,.226,4.839.01,8.059-.247,3.694,3.068,40.4,3.068,40.4H875.381l-4.6-33.24Z" transform="translate(-628.855 -355.058)" fill="#5347dc"/>
    <path id="Path_281" data-name="Path 281" d="M787.325,280.848A12.329,12.329,0,1,1,775,268.519h0a12.3,12.3,0,0,1,12.329,12.268Z" transform="translate(-546.72 -243.645)" fill="#ffb6b6"/>
    <path id="Path_282" data-name="Path 282" d="M761.165,240.343c1.444-3.106,4.239-2.492,6.684-1.439,3.1-.687,6.039-2.742,9.375-1.527,3.285,4.778,14.316,3.373,11.969,11.152,0,1.864,3.508.779,2.895,3.832,1.86,5.875-6.713,17-11.634,14.659,1.217-2.231,4-7.3-.22-7.8-9.071,8.441-.936-16.073-12.334-8.944C764.126,253.73,758.959,243.8,761.165,240.343Z" transform="translate(-545.177 -219.7)" fill="#2f2e41"/>
    <path id="Path_283" data-name="Path 283" d="M779.132,569.621l-19.681-3.9,5.046-25.48a54.843,54.843,0,0,0,19.681,3.9C778.8,552.032,776.354,560.505,779.132,569.621Z" transform="translate(-544.278 -450.077)" fill="#e4e4e4"/>
    <path id="Path_284" data-name="Path 284" d="M765.251,575.849l-19.681-3.9c-1.616-11.543-.147-20.234,5.046-25.48a54.842,54.842,0,0,0,19.681,3.9,70.187,70.187,0,0,0-5.046,25.48Z" transform="translate(-533.258 -454.81)" fill="#6c63ff"/>
    <path id="Path_285" data-name="Path 285" d="M719.8,588.432a4.344,4.344,0,0,0-5.593-3.616l-9.14-12.439-2.781,7.524,9.106,10.659a4.367,4.367,0,0,0,8.409-2.127Z" transform="translate(-500.85 -474.49)" fill="#ffb6b6"/>
    <path id="Path_286" data-name="Path 286" d="M675.576,412.236l-1.656-1.118s-9.852.917-11.879,10.064c0,0-1.482,5.5-2.163,8.65-.35,1.623-5.018,17.3-5.018,17.3l15.831,17.3,4.325-6.488-4.325-10.813Z" transform="translate(-464.818 -351.979)" fill="#5347dc"/>
    <path id="Path_287" data-name="Path 287" d="M260.614,222.649a.913.913,0,1,0,0,1.826h66.668a.913.913,0,1,0,0-1.826Z" transform="translate(-164.61 -208.797)" fill="#e4e4e4"/>
    <path id="Path_288" data-name="Path 288" d="M260.608,245.45a.913.913,0,1,0,0,1.826h42.148a.913.913,0,1,0,0-1.826Z" transform="translate(-164.604 -226.119)" fill="#e4e4e4"/>
    <path id="Path_289" data-name="Path 289" d="M224.614,495.649a.913.913,0,1,0,0,1.826h66.668a.913.913,0,1,0,0-1.826Z" transform="translate(-137.26 -416.199)" fill="#e4e4e4"/>
    <path id="Path_290" data-name="Path 290" d="M224.608,518.45a.913.913,0,0,0,0,1.826h42.148a.913.913,0,1,0,0-1.826Z" transform="translate(-137.254 -433.521)" fill="#e4e4e4"/>
    <path id="Path_291" data-name="Path 291" d="M382.614,690.649a.913.913,0,0,0,0,1.826h66.668a.913.913,0,0,0,0-1.826Z" transform="translate(-257.295 -564.343)" fill="#e4e4e4"/>
    <path id="Path_292" data-name="Path 292" d="M382.608,713.45a.913.913,0,0,0,0,1.826h42.148a.913.913,0,0,0,0-1.826Z" transform="translate(-257.289 -581.665)" fill="#e4e4e4"/>
  </g>
</svg>
